<?xml version="1.0" encoding="UTF-8" standalone="no"?><svg xmlns="http://www.w3.org/2000/svg" xmlns:xlink="http://www.w3.org/1999/xlink" contentScriptType="application/ecmascript" contentStyleType="text/css" height="315px" preserveAspectRatio="none" style="width:536px;height:315px;" version="1.1" viewBox="0 0 536 315" width="536px" zoomAndPan="magnify"><defs><filter height="300%" id="f1dgv4c2aicxdn" width="300%" x="-1" y="-1"><feGaussianBlur result="blurOut" stdDeviation="2.0"/><feColorMatrix in="blurOut" result="blurOut2" type="matrix" values="0 0 0 0 0 0 0 0 0 0 0 0 0 0 0 0 0 0 .4 0"/><feOffset dx="4.0" dy="4.0" in="blurOut2" result="blurOut3"/><feBlend in="SourceGraphic" in2="blurOut3" mode="normal"/></filter></defs><g><!--class Calendar--><rect fill="#FEFECE" filter="url(#f1dgv4c2aicxdn)" height="73.6094" id="Calendar" style="stroke: #A80036; stroke-width: 1.5;" width="262" x="6" y="192"/><ellipse cx="104.75" cy="208" fill="#ADD1B2" rx="11" ry="11" style="stroke: #A80036; stroke-width: 1.0;"/><path d="M107.7188,213.6406 Q107.1406,213.9375 106.5,214.0859 Q105.8594,214.2344 105.1563,214.2344 Q102.6563,214.2344 101.3359,212.5859 Q100.0156,210.9375 100.0156,207.8125 Q100.0156,204.6875 101.3359,203.0313 Q102.6563,201.375 105.1563,201.375 Q105.8594,201.375 106.5078,201.5313 Q107.1563,201.6875 107.7188,201.9844 L107.7188,204.7031 Q107.0938,204.125 106.5,203.8516 Q105.9063,203.5781 105.2813,203.5781 Q103.9375,203.5781 103.25,204.6484 Q102.5625,205.7188 102.5625,207.8125 Q102.5625,209.9063 103.25,210.9766 Q103.9375,212.0469 105.2813,212.0469 Q105.9063,212.0469 106.5,211.7734 Q107.0938,211.5 107.7188,210.9219 L107.7188,213.6406 Z "/><text fill="#000000" font-family="sans-serif" font-size="12" lengthAdjust="spacingAndGlyphs" textLength="56" x="125.25" y="212.1543">Calendar</text><line style="stroke: #A80036; stroke-width: 1.5;" x1="7" x2="267" y1="224" y2="224"/><line style="stroke: #A80036; stroke-width: 1.5;" x1="7" x2="267" y1="232" y2="232"/><rect fill="#F24D5C" height="6" style="stroke: #C82930; stroke-width: 1.0;" width="6" x="14" y="240"/><text fill="#000000" font-family="sans-serif" font-size="11" lengthAdjust="spacingAndGlyphs" textLength="160" x="26" y="246.2104">boolean isLeafYear(int year)</text><ellipse cx="17" cy="255.8047" fill="#84BE84" rx="3" ry="3" style="stroke: #038048; stroke-width: 1.0;"/><text fill="#000000" font-family="sans-serif" font-size="11" lengthAdjust="spacingAndGlyphs" textLength="236" x="26" y="259.0151">int determineTotalDateInMonth(int month)</text><!--class User--><rect fill="#FEFECE" filter="url(#f1dgv4c2aicxdn)" height="150.4375" id="User" style="stroke: #A80036; stroke-width: 1.5;" width="222" x="303" y="154"/><ellipse cx="395.25" cy="170" fill="#ADD1B2" rx="11" ry="11" style="stroke: #A80036; stroke-width: 1.0;"/><path d="M398.2188,175.6406 Q397.6406,175.9375 397,176.0859 Q396.3594,176.2344 395.6563,176.2344 Q393.1563,176.2344 391.8359,174.5859 Q390.5156,172.9375 390.5156,169.8125 Q390.5156,166.6875 391.8359,165.0313 Q393.1563,163.375 395.6563,163.375 Q396.3594,163.375 397.0078,163.5313 Q397.6563,163.6875 398.2188,163.9844 L398.2188,166.7031 Q397.5938,166.125 397,165.8516 Q396.4063,165.5781 395.7813,165.5781 Q394.4375,165.5781 393.75,166.6484 Q393.0625,167.7188 393.0625,169.8125 Q393.0625,171.9063 393.75,172.9766 Q394.4375,174.0469 395.7813,174.0469 Q396.4063,174.0469 397,173.7734 Q397.5938,173.5 398.2188,172.9219 L398.2188,175.6406 Z "/><text fill="#000000" font-family="sans-serif" font-size="12" lengthAdjust="spacingAndGlyphs" textLength="29" x="415.75" y="174.1543">User</text><line style="stroke: #A80036; stroke-width: 1.5;" x1="304" x2="524" y1="186" y2="186"/><rect fill="none" height="6" style="stroke: #C82930; stroke-width: 1.0;" width="6" x="311" y="194"/><text fill="#000000" font-family="sans-serif" font-size="11" lengthAdjust="spacingAndGlyphs" text-decoration="underline" textLength="64" x="323" y="200.2104">Scanner sc</text><rect fill="none" height="6" style="stroke: #C82930; stroke-width: 1.0;" width="6" x="311" y="206.8047"/><text fill="#000000" font-family="sans-serif" font-size="11" lengthAdjust="spacingAndGlyphs" textLength="90" x="323" y="213.0151">String dataUser</text><line style="stroke: #A80036; stroke-width: 1.5;" x1="304" x2="524" y1="219.6094" y2="219.6094"/><ellipse cx="314" cy="230.6094" fill="#84BE84" rx="3" ry="3" style="stroke: #038048; stroke-width: 1.0;"/><text fill="#000000" font-family="sans-serif" font-size="11" lengthAdjust="spacingAndGlyphs" textLength="125" x="323" y="233.8198">User(String dataUser)</text><text fill="#000000" font-family="sans-serif" font-size="11" lengthAdjust="spacingAndGlyphs" textLength="0" x="327" y="246.6245"/><ellipse cx="314" cy="256.2188" fill="#84BE84" rx="3" ry="3" style="stroke: #038048; stroke-width: 1.0;"/><text fill="#000000" font-family="sans-serif" font-size="11" lengthAdjust="spacingAndGlyphs" textLength="117" x="323" y="259.4292">String getDataUser()</text><ellipse cx="314" cy="269.0234" fill="#84BE84" rx="3" ry="3" style="stroke: #038048; stroke-width: 1.0;"/><text fill="#000000" font-family="sans-serif" font-size="11" lengthAdjust="spacingAndGlyphs" textLength="196" x="323" y="272.2339">void setDataUser(String dataUser)</text><text fill="#000000" font-family="sans-serif" font-size="11" lengthAdjust="spacingAndGlyphs" textLength="0" x="327" y="285.0386"/><ellipse cx="314" cy="294.6328" fill="#84BE84" rx="3" ry="3" style="stroke: #038048; stroke-width: 1.0;"/><text fill="#000000" font-family="sans-serif" font-size="11" lengthAdjust="spacingAndGlyphs" textLength="118" x="323" y="297.8433">String getInputData()</text><!--class ApplicationCalendar--><rect fill="#FEFECE" filter="url(#f1dgv4c2aicxdn)" height="86.4141" id="ApplicationCalendar" style="stroke: #A80036; stroke-width: 1.5;" width="398" x="76" y="8"/><ellipse cx="208.25" cy="24" fill="#ADD1B2" rx="11" ry="11" style="stroke: #A80036; stroke-width: 1.0;"/><path d="M211.2188,29.6406 Q210.6406,29.9375 210,30.0859 Q209.3594,30.2344 208.6563,30.2344 Q206.1563,30.2344 204.8359,28.5859 Q203.5156,26.9375 203.5156,23.8125 Q203.5156,20.6875 204.8359,19.0313 Q206.1563,17.375 208.6563,17.375 Q209.3594,17.375 210.0078,17.5313 Q210.6563,17.6875 211.2188,17.9844 L211.2188,20.7031 Q210.5938,20.125 210,19.8516 Q209.4063,19.5781 208.7813,19.5781 Q207.4375,19.5781 206.75,20.6484 Q206.0625,21.7188 206.0625,23.8125 Q206.0625,25.9063 206.75,26.9766 Q207.4375,28.0469 208.7813,28.0469 Q209.4063,28.0469 210,27.7734 Q210.5938,27.5 211.2188,26.9219 L211.2188,29.6406 Z "/><text fill="#000000" font-family="sans-serif" font-size="12" lengthAdjust="spacingAndGlyphs" textLength="125" x="228.75" y="28.1543">ApplicationCalendar</text><line style="stroke: #A80036; stroke-width: 1.5;" x1="77" x2="473" y1="40" y2="40"/><rect fill="none" height="6" style="stroke: #C82930; stroke-width: 1.0;" width="6" x="84" y="48"/><text fill="#000000" font-family="sans-serif" font-size="11" lengthAdjust="spacingAndGlyphs" text-decoration="underline" textLength="104" x="96" y="54.2104">Calendar calendar</text><line style="stroke: #A80036; stroke-width: 1.5;" x1="77" x2="473" y1="60.8047" y2="60.8047"/><rect fill="#F24D5C" height="6" style="stroke: #C82930; stroke-width: 1.0;" width="6" x="84" y="68.8047"/><text fill="#000000" font-family="sans-serif" font-size="11" lengthAdjust="spacingAndGlyphs" textLength="372" x="96" y="75.0151">String formatDateMonth(int nextDate, int nextMonth, int nextYear)</text><ellipse cx="87" cy="84.6094" fill="#84BE84" rx="3" ry="3" style="stroke: #038048; stroke-width: 1.0;"/><text fill="#000000" font-family="sans-serif" font-size="11" lengthAdjust="spacingAndGlyphs" textLength="326" x="96" y="87.8198">int findNextDate(int dateNow, int monthNow, int yearNow)</text><!--reverse link ApplicationCalendar to Calendar--><path d="M233.4724,104.5646 C211.6626,132.6961 185.4762,166.4727 165.8925,191.7328 " fill="none" id="ApplicationCalendar&lt;-Calendar" style="stroke: #A80036; stroke-width: 1.0;"/><polygon fill="#A80036" points="241.594,94.0888,234.7565,96.3798,234.2414,103.5725,241.0789,101.2815,241.594,94.0888" style="stroke: #A80036; stroke-width: 1.0;"/><!--reverse link ApplicationCalendar to User--><path d="M316.8185,104.5518 C328.9646,120.1058 342.4591,137.3865 355.4323,153.9997 " fill="none" id="ApplicationCalendar&lt;-User" style="stroke: #A80036; stroke-width: 1.0;"/><polygon fill="#A80036" points="308.648,94.0888,309.1882,101.2796,316.0337,103.5467,315.4935,96.3558,308.648,94.0888" style="stroke: #A80036; stroke-width: 1.0;"/><!--
@startuml   Calender UML

class Calendar {
    - boolean isLeafYear(int year)
    + int determineTotalDateInMonth(int month)
}

class User {
    - {static} Scanner sc
    - String dataUser

    + User(String dataUser)

    + String getDataUser()
    + void setDataUser(String dataUser)

    + String getInputData()
}

class ApplicationCalendar {
    - {static} Calendar calendar

    - String formatDateMonth(int nextDate, int nextMonth, int nextYear)
    + int findNextDate(int dateNow, int monthNow, int yearNow)
}

ApplicationCalendar *- - Calendar
ApplicationCalendar *- - User

@enduml

PlantUML version 1.2019.09(Mon Aug 26 23:19:51 ICT 2019)
(GPL source distribution)
Java Runtime: OpenJDK Runtime Environment
JVM: OpenJDK 64-Bit Server VM
Java Version: 1.8.0_171-8u171-b11-2-b11
Operating System: Linux
OS Version: 4.19.0-kali1-amd64
Default Encoding: UTF-8
Language: en
Country: US
--></g></svg>