<?xml version="1.0" encoding="UTF-8" standalone="no"?><svg xmlns="http://www.w3.org/2000/svg" xmlns:xlink="http://www.w3.org/1999/xlink" contentScriptType="application/ecmascript" contentStyleType="text/css" height="303px" preserveAspectRatio="none" style="width:181px;height:303px;" version="1.1" viewBox="0 0 181 303" width="181px" zoomAndPan="magnify"><defs><filter height="300%" id="f15e91irrjpeu9" width="300%" x="-1" y="-1"><feGaussianBlur result="blurOut" stdDeviation="2.0"/><feColorMatrix in="blurOut" result="blurOut2" type="matrix" values="0 0 0 0 0 0 0 0 0 0 0 0 0 0 0 0 0 0 .4 0"/><feOffset dx="4.0" dy="4.0" in="blurOut2" result="blurOut3"/><feBlend in="SourceGraphic" in2="blurOut3" mode="normal"/></filter></defs><g><!--class Node--><rect fill="#FEFECE" filter="url(#f15e91irrjpeu9)" height="86.4141" id="Node" style="stroke: #A80036; stroke-width: 1.5;" width="100" x="36.5" y="206"/><ellipse cx="67.25" cy="222" fill="#ADD1B2" rx="11" ry="11" style="stroke: #A80036; stroke-width: 1.0;"/><path d="M70.2188,227.6406 Q69.6406,227.9375 69,228.0859 Q68.3594,228.2344 67.6563,228.2344 Q65.1563,228.2344 63.8359,226.5859 Q62.5156,224.9375 62.5156,221.8125 Q62.5156,218.6875 63.8359,217.0313 Q65.1563,215.375 67.6563,215.375 Q68.3594,215.375 69.0078,215.5313 Q69.6563,215.6875 70.2188,215.9844 L70.2188,218.7031 Q69.5938,218.125 69,217.8516 Q68.4063,217.5781 67.7813,217.5781 Q66.4375,217.5781 65.75,218.6484 Q65.0625,219.7188 65.0625,221.8125 Q65.0625,223.9063 65.75,224.9766 Q66.4375,226.0469 67.7813,226.0469 Q68.4063,226.0469 69,225.7734 Q69.5938,225.5 70.2188,224.9219 L70.2188,227.6406 Z "/><text fill="#000000" font-family="sans-serif" font-size="12" lengthAdjust="spacingAndGlyphs" textLength="33" x="84.75" y="226.1543">Node</text><line style="stroke: #A80036; stroke-width: 1.5;" x1="37.5" x2="135.5" y1="238" y2="238"/><polygon fill="none" points="47.5,245,43.5,251,51.5,251" style="stroke: #1963A0; stroke-width: 1.0;"/><text fill="#000000" font-family="sans-serif" font-size="11" lengthAdjust="spacingAndGlyphs" textLength="37" x="56.5" y="252.2104">int key</text><polygon fill="none" points="47.5,257.8047,43.5,263.8047,51.5,263.8047" style="stroke: #1963A0; stroke-width: 1.0;"/><text fill="#000000" font-family="sans-serif" font-size="11" lengthAdjust="spacingAndGlyphs" textLength="57" x="56.5" y="265.0151">Node next</text><line style="stroke: #A80036; stroke-width: 1.5;" x1="37.5" x2="135.5" y1="271.6094" y2="271.6094"/><ellipse cx="47.5" cy="282.6094" fill="#84BE84" rx="3" ry="3" style="stroke: #038048; stroke-width: 1.0;"/><text fill="#000000" font-family="sans-serif" font-size="11" lengthAdjust="spacingAndGlyphs" textLength="74" x="56.5" y="285.8198">Node(int key)</text><!--class MyLinkedListQueue--><rect fill="#FEFECE" filter="url(#f15e91irrjpeu9)" height="137.6328" id="MyLinkedListQueue" style="stroke: #A80036; stroke-width: 1.5;" width="161" x="6" y="8"/><ellipse cx="21" cy="24" fill="#ADD1B2" rx="11" ry="11" style="stroke: #A80036; stroke-width: 1.0;"/><path d="M23.9688,29.6406 Q23.3906,29.9375 22.75,30.0859 Q22.1094,30.2344 21.4063,30.2344 Q18.9063,30.2344 17.5859,28.5859 Q16.2656,26.9375 16.2656,23.8125 Q16.2656,20.6875 17.5859,19.0313 Q18.9063,17.375 21.4063,17.375 Q22.1094,17.375 22.7578,17.5313 Q23.4063,17.6875 23.9688,17.9844 L23.9688,20.7031 Q23.3438,20.125 22.75,19.8516 Q22.1563,19.5781 21.5313,19.5781 Q20.1875,19.5781 19.5,20.6484 Q18.8125,21.7188 18.8125,23.8125 Q18.8125,25.9063 19.5,26.9766 Q20.1875,28.0469 21.5313,28.0469 Q22.1563,28.0469 22.75,27.7734 Q23.3438,27.5 23.9688,26.9219 L23.9688,29.6406 Z "/><text fill="#000000" font-family="sans-serif" font-size="12" lengthAdjust="spacingAndGlyphs" textLength="118" x="35" y="28.1543">MyLinkedListQueue</text><rect fill="#FFFFFF" height="15.9688" style="stroke: #000000; stroke-width: 1.0; stroke-dasharray: 2.0,2.0;" width="9" x="161" y="5"/><text fill="#000000" font-family="sans-serif" font-size="12" font-style="italic" lengthAdjust="spacingAndGlyphs" textLength="7" x="162" y="17.1387">T</text><line style="stroke: #A80036; stroke-width: 1.5;" x1="7" x2="166" y1="40" y2="40"/><rect fill="none" height="6" style="stroke: #C82930; stroke-width: 1.0;" width="6" x="14" y="48"/><text fill="#000000" font-family="sans-serif" font-size="11" lengthAdjust="spacingAndGlyphs" textLength="39" x="26" y="54.2104">T head</text><rect fill="none" height="6" style="stroke: #C82930; stroke-width: 1.0;" width="6" x="14" y="60.8047"/><text fill="#000000" font-family="sans-serif" font-size="11" lengthAdjust="spacingAndGlyphs" textLength="28" x="26" y="67.0151">T tail</text><line style="stroke: #A80036; stroke-width: 1.5;" x1="7" x2="166" y1="73.6094" y2="73.6094"/><ellipse cx="17" cy="84.6094" fill="#84BE84" rx="3" ry="3" style="stroke: #038048; stroke-width: 1.0;"/><text fill="#000000" font-family="sans-serif" font-size="11" lengthAdjust="spacingAndGlyphs" textLength="116" x="26" y="87.8198">MyLinkedListQueue()</text><text fill="#000000" font-family="sans-serif" font-size="11" lengthAdjust="spacingAndGlyphs" textLength="0" x="30" y="100.6245"/><rect fill="#F24D5C" height="6" style="stroke: #C82930; stroke-width: 1.0;" width="6" x="14" y="107.2188"/><text fill="#000000" font-family="sans-serif" font-size="11" lengthAdjust="spacingAndGlyphs" textLength="102" x="26" y="113.4292">boolean isEmpty()</text><ellipse cx="17" cy="123.0234" fill="#84BE84" rx="3" ry="3" style="stroke: #038048; stroke-width: 1.0;"/><text fill="#000000" font-family="sans-serif" font-size="11" lengthAdjust="spacingAndGlyphs" textLength="123" x="26" y="126.2339">void enQueue(int key)</text><ellipse cx="17" cy="135.8281" fill="#84BE84" rx="3" ry="3" style="stroke: #038048; stroke-width: 1.0;"/><text fill="#000000" font-family="sans-serif" font-size="11" lengthAdjust="spacingAndGlyphs" textLength="70" x="26" y="139.0386">T deQueue()</text><!--reverse link MyLinkedListQueue to Node--><path d="M86.5,159.7489 C86.5,175.664 86.5,191.7278 86.5,205.7559 " fill="none" id="MyLinkedListQueue&lt;-Node" style="stroke: #A80036; stroke-width: 1.0;"/><polygon fill="#A80036" points="86.5,146.4632,82.5,152.4632,86.5,158.4632,90.5,152.4632,86.5,146.4632" style="stroke: #A80036; stroke-width: 1.0;"/><!--
@startuml   LinkedListQueue diagram
    class Node {
        ~ int key
        ~ Node next

        + Node(int key)
    }
    class MyLinkedListQueue<T> {
        - T head
        - T tail

        + MyLinkedListQueue()

        - boolean isEmpty()
        + void enQueue(int key)
        + T deQueue()
    }

    MyLinkedListQueue *- - Node
@enduml

PlantUML version 1.2019.09(Mon Aug 26 23:19:51 ICT 2019)
(GPL source distribution)
Java Runtime: OpenJDK Runtime Environment
JVM: OpenJDK 64-Bit Server VM
Java Version: 1.8.0_171-8u171-b11-2-b11
Operating System: Linux
OS Version: 4.19.0-kali1-amd64
Default Encoding: UTF-8
Language: en
Country: US
--></g></svg>