<?xml version="1.0" encoding="UTF-8" standalone="no"?><svg xmlns="http://www.w3.org/2000/svg" xmlns:xlink="http://www.w3.org/1999/xlink" contentScriptType="application/ecmascript" contentStyleType="text/css" height="175px" preserveAspectRatio="none" style="width:243px;height:175px;" version="1.1" viewBox="0 0 243 175" width="243px" zoomAndPan="magnify"><defs><filter height="300%" id="f1j6n3swcywq4z" width="300%" x="-1" y="-1"><feGaussianBlur result="blurOut" stdDeviation="2.0"/><feColorMatrix in="blurOut" result="blurOut2" type="matrix" values="0 0 0 0 0 0 0 0 0 0 0 0 0 0 0 0 0 0 .4 0"/><feOffset dx="4.0" dy="4.0" in="blurOut2" result="blurOut3"/><feBlend in="SourceGraphic" in2="blurOut3" mode="normal"/></filter></defs><g><!--class Edible--><rect fill="#FEFECE" filter="url(#f1j6n3swcywq4z)" height="48" id="Edible" style="stroke: #A80036; stroke-width: 1.5;" width="70" x="6" y="8"/><ellipse cx="21" cy="24" fill="#B4A7E5" rx="11" ry="11" style="stroke: #A80036; stroke-width: 1.0;"/><path d="M16.9219,19.7656 L16.9219,17.6094 L24.3125,17.6094 L24.3125,19.7656 L21.8438,19.7656 L21.8438,27.8438 L24.3125,27.8438 L24.3125,30 L16.9219,30 L16.9219,27.8438 L19.3906,27.8438 L19.3906,19.7656 L16.9219,19.7656 Z "/><text fill="#000000" font-family="sans-serif" font-size="12" font-style="italic" lengthAdjust="spacingAndGlyphs" textLength="38" x="35" y="28.1543">Edible</text><line style="stroke: #A80036; stroke-width: 1.5;" x1="7" x2="75" y1="40" y2="40"/><line style="stroke: #A80036; stroke-width: 1.5;" x1="7" x2="75" y1="48" y2="48"/><!--class Animal--><rect fill="#FEFECE" filter="url(#f1j6n3swcywq4z)" height="48" id="Animal" style="stroke: #A80036; stroke-width: 1.5;" width="73" x="111.5" y="8"/><ellipse cx="126.5" cy="24" fill="#A9DCDF" rx="11" ry="11" style="stroke: #A80036; stroke-width: 1.0;"/><path d="M126.6094,19.3438 L125.4531,24.4219 L127.7813,24.4219 L126.6094,19.3438 Z M125.125,17.1094 L128.1094,17.1094 L131.4688,29.5 L129.0156,29.5 L128.25,26.4375 L124.9688,26.4375 L124.2188,29.5 L121.7813,29.5 L125.125,17.1094 Z "/><text fill="#000000" font-family="sans-serif" font-size="12" font-style="italic" lengthAdjust="spacingAndGlyphs" textLength="41" x="140.5" y="28.1543">Animal</text><line style="stroke: #A80036; stroke-width: 1.5;" x1="112.5" x2="183.5" y1="40" y2="40"/><line style="stroke: #A80036; stroke-width: 1.5;" x1="112.5" x2="183.5" y1="48" y2="48"/><!--class Chicken--><rect fill="#FEFECE" filter="url(#f1j6n3swcywq4z)" height="48" id="Chicken" style="stroke: #A80036; stroke-width: 1.5;" width="81" x="53.5" y="116"/><ellipse cx="68.5" cy="132" fill="#ADD1B2" rx="11" ry="11" style="stroke: #A80036; stroke-width: 1.0;"/><path d="M71.4688,137.6406 Q70.8906,137.9375 70.25,138.0859 Q69.6094,138.2344 68.9063,138.2344 Q66.4063,138.2344 65.0859,136.5859 Q63.7656,134.9375 63.7656,131.8125 Q63.7656,128.6875 65.0859,127.0313 Q66.4063,125.375 68.9063,125.375 Q69.6094,125.375 70.2578,125.5313 Q70.9063,125.6875 71.4688,125.9844 L71.4688,128.7031 Q70.8438,128.125 70.25,127.8516 Q69.6563,127.5781 69.0313,127.5781 Q67.6875,127.5781 67,128.6484 Q66.3125,129.7188 66.3125,131.8125 Q66.3125,133.9063 67,134.9766 Q67.6875,136.0469 69.0313,136.0469 Q69.6563,136.0469 70.25,135.7734 Q70.8438,135.5 71.4688,134.9219 L71.4688,137.6406 Z "/><text fill="#000000" font-family="sans-serif" font-size="12" lengthAdjust="spacingAndGlyphs" textLength="49" x="82.5" y="136.1543">Chicken</text><line style="stroke: #A80036; stroke-width: 1.5;" x1="54.5" x2="133.5" y1="148" y2="148"/><line style="stroke: #A80036; stroke-width: 1.5;" x1="54.5" x2="133.5" y1="156" y2="156"/><!--class Tiger--><rect fill="#FEFECE" filter="url(#f1j6n3swcywq4z)" height="48" id="Tiger" style="stroke: #A80036; stroke-width: 1.5;" width="63" x="169.5" y="116"/><ellipse cx="184.5" cy="132" fill="#ADD1B2" rx="11" ry="11" style="stroke: #A80036; stroke-width: 1.0;"/><path d="M187.4688,137.6406 Q186.8906,137.9375 186.25,138.0859 Q185.6094,138.2344 184.9063,138.2344 Q182.4063,138.2344 181.0859,136.5859 Q179.7656,134.9375 179.7656,131.8125 Q179.7656,128.6875 181.0859,127.0313 Q182.4063,125.375 184.9063,125.375 Q185.6094,125.375 186.2578,125.5313 Q186.9063,125.6875 187.4688,125.9844 L187.4688,128.7031 Q186.8438,128.125 186.25,127.8516 Q185.6563,127.5781 185.0313,127.5781 Q183.6875,127.5781 183,128.6484 Q182.3125,129.7188 182.3125,131.8125 Q182.3125,133.9063 183,134.9766 Q183.6875,136.0469 185.0313,136.0469 Q185.6563,136.0469 186.25,135.7734 Q186.8438,135.5 187.4688,134.9219 L187.4688,137.6406 Z "/><text fill="#000000" font-family="sans-serif" font-size="12" lengthAdjust="spacingAndGlyphs" textLength="31" x="198.5" y="136.1543">Tiger</text><line style="stroke: #A80036; stroke-width: 1.5;" x1="170.5" x2="231.5" y1="148" y2="148"/><line style="stroke: #A80036; stroke-width: 1.5;" x1="170.5" x2="231.5" y1="156" y2="156"/><!--reverse link Animal to Chicken--><path d="M126.8176,74.3649 C119.7786,88.4428 112.1859,103.6283 106.0782,115.8436 " fill="none" id="Animal&lt;-Chicken" style="stroke: #A80036; stroke-width: 1.0;"/><polygon fill="none" points="120.676,70.9953,135.8813,56.2373,133.198,77.2564,120.676,70.9953" style="stroke: #A80036; stroke-width: 1.0;"/><!--reverse link Animal to Tiger--><path d="M168.7902,74.3649 C175.6988,88.4428 183.1509,103.6283 189.1455,115.8436 " fill="none" id="Animal&lt;-Tiger" style="stroke: #A80036; stroke-width: 1.0;"/><polygon fill="none" points="162.4212,77.2757,159.8942,56.2373,174.9894,71.108,162.4212,77.2757" style="stroke: #A80036; stroke-width: 1.0;"/><!--
@startuml Animla_Edible UML
    interface Edible
    abstract class Animal
    
    Animal <|- - Chicken
    Animal <|- - Tiger
@enduml

PlantUML version 1.2019.09(Mon Aug 26 23:19:51 ICT 2019)
(GPL source distribution)
Java Runtime: OpenJDK Runtime Environment
JVM: OpenJDK 64-Bit Server VM
Java Version: 1.8.0_171-8u171-b11-2-b11
Operating System: Linux
OS Version: 4.19.0-kali1-amd64
Default Encoding: UTF-8
Language: en
Country: US
--></g></svg>