<?xml version="1.0" encoding="UTF-8" standalone="no"?><svg xmlns="http://www.w3.org/2000/svg" xmlns:xlink="http://www.w3.org/1999/xlink" contentScriptType="application/ecmascript" contentStyleType="text/css" height="341px" preserveAspectRatio="none" style="width:402px;height:341px;" version="1.1" viewBox="0 0 402 341" width="402px" zoomAndPan="magnify"><defs><filter height="300%" id="f14ejvns118qk1" width="300%" x="-1" y="-1"><feGaussianBlur result="blurOut" stdDeviation="2.0"/><feColorMatrix in="blurOut" result="blurOut2" type="matrix" values="0 0 0 0 0 0 0 0 0 0 0 0 0 0 0 0 0 0 .4 0"/><feOffset dx="4.0" dy="4.0" in="blurOut2" result="blurOut3"/><feBlend in="SourceGraphic" in2="blurOut3" mode="normal"/></filter></defs><g><!--class Comparable--><rect fill="#FEFECE" filter="url(#f14ejvns118qk1)" height="60.8047" id="Comparable" style="stroke: #A80036; stroke-width: 1.5;" width="144" x="6" y="46.5"/><ellipse cx="32.7" cy="62.5" fill="#B4A7E5" rx="11" ry="11" style="stroke: #A80036; stroke-width: 1.0;"/><path d="M28.6219,58.2656 L28.6219,56.1094 L36.0125,56.1094 L36.0125,58.2656 L33.5438,58.2656 L33.5438,66.3438 L36.0125,66.3438 L36.0125,68.5 L28.6219,68.5 L28.6219,66.3438 L31.0906,66.3438 L31.0906,58.2656 L28.6219,58.2656 Z "/><text fill="#000000" font-family="sans-serif" font-size="12" font-style="italic" lengthAdjust="spacingAndGlyphs" textLength="75" x="49.3" y="66.6543">Comparable</text><rect fill="#FFFFFF" height="15.9688" style="stroke: #000000; stroke-width: 1.0; stroke-dasharray: 2.0,2.0;" width="9" x="144" y="43.5"/><text fill="#000000" font-family="sans-serif" font-size="12" font-style="italic" lengthAdjust="spacingAndGlyphs" textLength="7" x="145" y="55.6387">T</text><line style="stroke: #A80036; stroke-width: 1.5;" x1="7" x2="149" y1="78.5" y2="78.5"/><line style="stroke: #A80036; stroke-width: 1.5;" x1="7" x2="149" y1="86.5" y2="86.5"/><ellipse cx="17" cy="97.5" fill="#84BE84" rx="3" ry="3" style="stroke: #038048; stroke-width: 1.0;"/><text fill="#000000" font-family="sans-serif" font-size="11" lengthAdjust="spacingAndGlyphs" textLength="118" x="26" y="100.7104">int compareTo(T obj)</text><!--class Node--><rect fill="#FEFECE" filter="url(#f14ejvns118qk1)" height="124.8281" id="Node" style="stroke: #A80036; stroke-width: 1.5;" width="130" x="27" y="206"/><ellipse cx="71.25" cy="222" fill="#ADD1B2" rx="11" ry="11" style="stroke: #A80036; stroke-width: 1.0;"/><path d="M74.2188,227.6406 Q73.6406,227.9375 73,228.0859 Q72.3594,228.2344 71.6563,228.2344 Q69.1563,228.2344 67.8359,226.5859 Q66.5156,224.9375 66.5156,221.8125 Q66.5156,218.6875 67.8359,217.0313 Q69.1563,215.375 71.6563,215.375 Q72.3594,215.375 73.0078,215.5313 Q73.6563,215.6875 74.2188,215.9844 L74.2188,218.7031 Q73.5938,218.125 73,217.8516 Q72.4063,217.5781 71.7813,217.5781 Q70.4375,217.5781 69.75,218.6484 Q69.0625,219.7188 69.0625,221.8125 Q69.0625,223.9063 69.75,224.9766 Q70.4375,226.0469 71.7813,226.0469 Q72.4063,226.0469 73,225.7734 Q73.5938,225.5 74.2188,224.9219 L74.2188,227.6406 Z "/><text fill="#000000" font-family="sans-serif" font-size="12" lengthAdjust="spacingAndGlyphs" textLength="33" x="91.75" y="226.1543">Node</text><line style="stroke: #A80036; stroke-width: 1.5;" x1="28" x2="156" y1="238" y2="238"/><rect fill="none" height="6" style="stroke: #C82930; stroke-width: 1.0;" width="6" x="35" y="246"/><text fill="#000000" font-family="sans-serif" font-size="11" lengthAdjust="spacingAndGlyphs" textLength="65" x="47" y="252.2104">Object data</text><rect fill="none" height="6" style="stroke: #C82930; stroke-width: 1.0;" width="6" x="35" y="258.8047"/><text fill="#000000" font-family="sans-serif" font-size="11" lengthAdjust="spacingAndGlyphs" textLength="57" x="47" y="265.0151">Node next</text><line style="stroke: #A80036; stroke-width: 1.5;" x1="28" x2="156" y1="271.6094" y2="271.6094"/><ellipse cx="38" cy="282.6094" fill="#84BE84" rx="3" ry="3" style="stroke: #038048; stroke-width: 1.0;"/><text fill="#000000" font-family="sans-serif" font-size="11" lengthAdjust="spacingAndGlyphs" textLength="80" x="47" y="285.8198">Node(int data)</text><ellipse cx="38" cy="295.4141" fill="#84BE84" rx="3" ry="3" style="stroke: #038048; stroke-width: 1.0;"/><text fill="#000000" font-family="sans-serif" font-size="11" lengthAdjust="spacingAndGlyphs" textLength="92" x="47" y="298.6245">Object getData()</text><text fill="#000000" font-family="sans-serif" font-size="11" lengthAdjust="spacingAndGlyphs" textLength="0" x="51" y="311.4292"/><ellipse cx="38" cy="321.0234" fill="#84BE84" rx="3" ry="3" style="stroke: #038048; stroke-width: 1.0;"/><text fill="#000000" font-family="sans-serif" font-size="11" lengthAdjust="spacingAndGlyphs" textLength="104" x="47" y="324.2339">void displayNode()</text><!--class MyLinkedList--><rect fill="#FEFECE" filter="url(#f14ejvns118qk1)" height="137.6328" id="MyLinkedList" style="stroke: #A80036; stroke-width: 1.5;" width="203" x="185.5" y="8"/><ellipse cx="238.75" cy="24" fill="#ADD1B2" rx="11" ry="11" style="stroke: #A80036; stroke-width: 1.0;"/><path d="M241.7188,29.6406 Q241.1406,29.9375 240.5,30.0859 Q239.8594,30.2344 239.1563,30.2344 Q236.6563,30.2344 235.3359,28.5859 Q234.0156,26.9375 234.0156,23.8125 Q234.0156,20.6875 235.3359,19.0313 Q236.6563,17.375 239.1563,17.375 Q239.8594,17.375 240.5078,17.5313 Q241.1563,17.6875 241.7188,17.9844 L241.7188,20.7031 Q241.0938,20.125 240.5,19.8516 Q239.9063,19.5781 239.2813,19.5781 Q237.9375,19.5781 237.25,20.6484 Q236.5625,21.7188 236.5625,23.8125 Q236.5625,25.9063 237.25,26.9766 Q237.9375,28.0469 239.2813,28.0469 Q239.9063,28.0469 240.5,27.7734 Q241.0938,27.5 241.7188,26.9219 L241.7188,29.6406 Z "/><text fill="#000000" font-family="sans-serif" font-size="12" lengthAdjust="spacingAndGlyphs" textLength="77" x="259.25" y="28.1543">MyLinkedList</text><rect fill="#FFFFFF" height="15.9688" style="stroke: #000000; stroke-width: 1.0; stroke-dasharray: 2.0,2.0;" width="9" x="382.5" y="5"/><text fill="#000000" font-family="sans-serif" font-size="12" font-style="italic" lengthAdjust="spacingAndGlyphs" textLength="7" x="383.5" y="17.1387">T</text><line style="stroke: #A80036; stroke-width: 1.5;" x1="186.5" x2="387.5" y1="40" y2="40"/><rect fill="none" height="6" style="stroke: #C82930; stroke-width: 1.0;" width="6" x="193.5" y="48"/><text fill="#000000" font-family="sans-serif" font-size="11" lengthAdjust="spacingAndGlyphs" textLength="39" x="205.5" y="54.2104">T head</text><rect fill="none" height="6" style="stroke: #C82930; stroke-width: 1.0;" width="6" x="193.5" y="60.8047"/><text fill="#000000" font-family="sans-serif" font-size="11" lengthAdjust="spacingAndGlyphs" textLength="79" x="205.5" y="67.0151">int numNodes</text><line style="stroke: #A80036; stroke-width: 1.5;" x1="186.5" x2="387.5" y1="73.6094" y2="73.6094"/><ellipse cx="196.5" cy="84.6094" fill="#84BE84" rx="3" ry="3" style="stroke: #038048; stroke-width: 1.0;"/><text fill="#000000" font-family="sans-serif" font-size="11" lengthAdjust="spacingAndGlyphs" textLength="123" x="205.5" y="87.8198">MyLinkedList(int Data)</text><polygon fill="#4177AF" points="196.5,93.4141,192.5,99.4141,200.5,99.4141" style="stroke: #1963A0; stroke-width: 1.0;"/><text fill="#000000" font-family="sans-serif" font-size="11" lengthAdjust="spacingAndGlyphs" textLength="177" x="205.5" y="100.6245">void add(int index, Object data)</text><ellipse cx="196.5" cy="110.2188" fill="#84BE84" rx="3" ry="3" style="stroke: #038048; stroke-width: 1.0;"/><text fill="#000000" font-family="sans-serif" font-size="11" lengthAdjust="spacingAndGlyphs" textLength="146" x="205.5" y="113.4292">void addFirst(Object data)</text><ellipse cx="196.5" cy="123.0234" fill="#84BE84" rx="3" ry="3" style="stroke: #038048; stroke-width: 1.0;"/><text fill="#000000" font-family="sans-serif" font-size="11" lengthAdjust="spacingAndGlyphs" textLength="85" x="205.5" y="126.2339">T get(int index)</text><ellipse cx="196.5" cy="135.8281" fill="#84BE84" rx="3" ry="3" style="stroke: #038048; stroke-width: 1.0;"/><text fill="#000000" font-family="sans-serif" font-size="11" lengthAdjust="spacingAndGlyphs" textLength="131" x="205.5" y="139.0386">void displayLinkedList()</text><!--class LinkedListTest--><rect fill="#FEFECE" filter="url(#f14ejvns118qk1)" height="60.8047" id="LinkedListTest" style="stroke: #A80036; stroke-width: 1.5;" width="161" x="206.5" y="238"/><ellipse cx="239.95" cy="254" fill="#ADD1B2" rx="11" ry="11" style="stroke: #A80036; stroke-width: 1.0;"/><path d="M242.9188,259.6406 Q242.3406,259.9375 241.7,260.0859 Q241.0594,260.2344 240.3563,260.2344 Q237.8563,260.2344 236.5359,258.5859 Q235.2156,256.9375 235.2156,253.8125 Q235.2156,250.6875 236.5359,249.0313 Q237.8563,247.375 240.3563,247.375 Q241.0594,247.375 241.7078,247.5313 Q242.3563,247.6875 242.9188,247.9844 L242.9188,250.7031 Q242.2938,250.125 241.7,249.8516 Q241.1063,249.5781 240.4813,249.5781 Q239.1375,249.5781 238.45,250.6484 Q237.7625,251.7188 237.7625,253.8125 Q237.7625,255.9063 238.45,256.9766 Q239.1375,258.0469 240.4813,258.0469 Q241.1063,258.0469 241.7,257.7734 Q242.2938,257.5 242.9188,256.9219 L242.9188,259.6406 Z "/><text fill="#000000" font-family="sans-serif" font-size="12" lengthAdjust="spacingAndGlyphs" textLength="88" x="258.05" y="258.1543">LinkedListTest</text><line style="stroke: #A80036; stroke-width: 1.5;" x1="207.5" x2="366.5" y1="270" y2="270"/><line style="stroke: #A80036; stroke-width: 1.5;" x1="207.5" x2="366.5" y1="278" y2="278"/><ellipse cx="217.5" cy="289" fill="#84BE84" rx="3" ry="3" style="stroke: #038048; stroke-width: 1.0;"/><text fill="#000000" font-family="sans-serif" font-size="11" lengthAdjust="spacingAndGlyphs" text-decoration="underline" textLength="135" x="226.5" y="292.2104">void main(String[] args)</text><!--reverse link Comparable to Node--><path d="M81.7082,127.7233 C83.4564,151.6359 85.5593,180.3999 87.4072,205.6777 " fill="none" id="Comparable&lt;-Node" style="stroke: #A80036; stroke-width: 1.0;"/><polygon fill="none" points="74.7263,128.225,80.2493,107.7678,88.6891,127.2041,74.7263,128.225" style="stroke: #A80036; stroke-width: 1.0;"/><!--reverse link MyLinkedList to Node--><path d="M207.1883,155.3792 C190.0818,172.1786 172.2237,189.7162 155.8166,205.8289 " fill="none" id="MyLinkedList&lt;-Node" style="stroke: #A80036; stroke-width: 1.0;"/><polygon fill="#A80036" points="216.6005,146.1359,209.5169,147.486,208.0387,154.544,215.1223,153.1939,216.6005,146.1359" style="stroke: #A80036; stroke-width: 1.0;"/><!--reverse link MyLinkedList to LinkedListTest--><path d="M287,159.2501 C287,187.1816 287,216.6771 287,237.971 " fill="none" id="MyLinkedList&lt;-LinkedListTest" style="stroke: #A80036; stroke-width: 1.0;"/><polygon fill="#FFFFFF" points="287,146.1359,283,152.1359,287,158.1359,291,152.1359,287,146.1359" style="stroke: #A80036; stroke-width: 1.0;"/><!--
@startuml   LinkedList Diagram
interface Comparable<T> {
    + int compareTo(T obj)
}

class Node {
    - Object data
    - Node next

    + Node(int data)
    + Object getData()
    
    + void displayNode()
}

class MyLinkedList<T> {
    - T head
    - int numNodes

    + MyLinkedList(int Data)
    ~ void add(int index, Object data)
    + void addFirst(Object data)
    + T get(int index)
    + void displayLinkedList()
}

class LinkedListTest {
    + {static} void main(String[] args)
}

Comparable <|- - Node
MyLinkedList *- - Node
MyLinkedList o- - LinkedListTest

@enduml

PlantUML version 1.2019.09(Mon Aug 26 23:19:51 ICT 2019)
(GPL source distribution)
Java Runtime: OpenJDK Runtime Environment
JVM: OpenJDK 64-Bit Server VM
Java Version: 1.8.0_171-8u171-b11-2-b11
Operating System: Linux
OS Version: 4.19.0-kali1-amd64
Default Encoding: UTF-8
Language: en
Country: US
--></g></svg>