<?xml version="1.0" encoding="UTF-8" standalone="no"?><svg xmlns="http://www.w3.org/2000/svg" xmlns:xlink="http://www.w3.org/1999/xlink" contentScriptType="application/ecmascript" contentStyleType="text/css" height="290px" preserveAspectRatio="none" style="width:195px;height:290px;" version="1.1" viewBox="0 0 195 290" width="195px" zoomAndPan="magnify"><defs><filter height="300%" id="f1aoru35kiq7d7" width="300%" x="-1" y="-1"><feGaussianBlur result="blurOut" stdDeviation="2.0"/><feColorMatrix in="blurOut" result="blurOut2" type="matrix" values="0 0 0 0 0 0 0 0 0 0 0 0 0 0 0 0 0 0 .4 0"/><feOffset dx="4.0" dy="4.0" in="blurOut2" result="blurOut3"/><feBlend in="SourceGraphic" in2="blurOut3" mode="normal"/></filter></defs><g><!--class MyGenericStack--><rect fill="#FEFECE" filter="url(#f1aoru35kiq7d7)" height="137.6328" id="MyGenericStack" style="stroke: #A80036; stroke-width: 1.5;" width="175" x="6" y="142"/><ellipse cx="35.85" cy="158" fill="#ADD1B2" rx="11" ry="11" style="stroke: #A80036; stroke-width: 1.0;"/><path d="M38.8188,163.6406 Q38.2406,163.9375 37.6,164.0859 Q36.9594,164.2344 36.2563,164.2344 Q33.7563,164.2344 32.4359,162.5859 Q31.1156,160.9375 31.1156,157.8125 Q31.1156,154.6875 32.4359,153.0313 Q33.7563,151.375 36.2563,151.375 Q36.9594,151.375 37.6078,151.5313 Q38.2563,151.6875 38.8188,151.9844 L38.8188,154.7031 Q38.1938,154.125 37.6,153.8516 Q37.0063,153.5781 36.3813,153.5781 Q35.0375,153.5781 34.35,154.6484 Q33.6625,155.7188 33.6625,157.8125 Q33.6625,159.9063 34.35,160.9766 Q35.0375,162.0469 36.3813,162.0469 Q37.0063,162.0469 37.6,161.7734 Q38.1938,161.5 38.8188,160.9219 L38.8188,163.6406 Z "/><text fill="#000000" font-family="sans-serif" font-size="12" lengthAdjust="spacingAndGlyphs" textLength="99" x="53.15" y="162.1543">MyGenericStack</text><rect fill="#FFFFFF" height="15.9688" style="stroke: #000000; stroke-width: 1.0; stroke-dasharray: 2.0,2.0;" width="9" x="175" y="139"/><text fill="#000000" font-family="sans-serif" font-size="12" font-style="italic" lengthAdjust="spacingAndGlyphs" textLength="7" x="176" y="151.1387">T</text><line style="stroke: #A80036; stroke-width: 1.5;" x1="7" x2="180" y1="174" y2="174"/><rect fill="none" height="6" style="stroke: #C82930; stroke-width: 1.0;" width="6" x="14" y="182"/><text fill="#000000" font-family="sans-serif" font-size="11" lengthAdjust="spacingAndGlyphs" textLength="149" x="26" y="188.2104">LinkedList underLinkedList</text><line style="stroke: #A80036; stroke-width: 1.5;" x1="7" x2="180" y1="194.8047" y2="194.8047"/><ellipse cx="17" cy="205.8047" fill="#84BE84" rx="3" ry="3" style="stroke: #038048; stroke-width: 1.0;"/><text fill="#000000" font-family="sans-serif" font-size="11" lengthAdjust="spacingAndGlyphs" textLength="98" x="26" y="209.0151">MyGenericStack()</text><text fill="#000000" font-family="sans-serif" font-size="11" lengthAdjust="spacingAndGlyphs" textLength="0" x="30" y="221.8198"/><ellipse cx="17" cy="231.4141" fill="#84BE84" rx="3" ry="3" style="stroke: #038048; stroke-width: 1.0;"/><text fill="#000000" font-family="sans-serif" font-size="11" lengthAdjust="spacingAndGlyphs" textLength="102" x="26" y="234.6245">void push(T elem)</text><ellipse cx="17" cy="244.2188" fill="#84BE84" rx="3" ry="3" style="stroke: #038048; stroke-width: 1.0;"/><text fill="#000000" font-family="sans-serif" font-size="11" lengthAdjust="spacingAndGlyphs" textLength="40" x="26" y="247.4292">T pop()</text><ellipse cx="17" cy="257.0234" fill="#84BE84" rx="3" ry="3" style="stroke: #038048; stroke-width: 1.0;"/><text fill="#000000" font-family="sans-serif" font-size="11" lengthAdjust="spacingAndGlyphs" textLength="48" x="26" y="260.2339">int size()</text><ellipse cx="17" cy="269.8281" fill="#84BE84" rx="3" ry="3" style="stroke: #038048; stroke-width: 1.0;"/><text fill="#000000" font-family="sans-serif" font-size="11" lengthAdjust="spacingAndGlyphs" textLength="102" x="26" y="273.0386">boolean isEmpty()</text><!--class GenericStackClient--><rect fill="#FEFECE" filter="url(#f1aoru35kiq7d7)" height="73.6094" id="GenericStackClient" style="stroke: #A80036; stroke-width: 1.5;" width="151" x="18" y="8"/><ellipse cx="33.45" cy="24" fill="#ADD1B2" rx="11" ry="11" style="stroke: #A80036; stroke-width: 1.0;"/><path d="M36.4188,29.6406 Q35.8406,29.9375 35.2,30.0859 Q34.5594,30.2344 33.8563,30.2344 Q31.3563,30.2344 30.0359,28.5859 Q28.7156,26.9375 28.7156,23.8125 Q28.7156,20.6875 30.0359,19.0313 Q31.3563,17.375 33.8563,17.375 Q34.5594,17.375 35.2078,17.5313 Q35.8563,17.6875 36.4188,17.9844 L36.4188,20.7031 Q35.7938,20.125 35.2,19.8516 Q34.6063,19.5781 33.9813,19.5781 Q32.6375,19.5781 31.95,20.6484 Q31.2625,21.7188 31.2625,23.8125 Q31.2625,25.9063 31.95,26.9766 Q32.6375,28.0469 33.9813,28.0469 Q34.6063,28.0469 35.2,27.7734 Q35.7938,27.5 36.4188,26.9219 L36.4188,29.6406 Z "/><text fill="#000000" font-family="sans-serif" font-size="12" lengthAdjust="spacingAndGlyphs" textLength="118" x="47.55" y="28.1543">GenericStackClient</text><line style="stroke: #A80036; stroke-width: 1.5;" x1="19" x2="168" y1="40" y2="40"/><line style="stroke: #A80036; stroke-width: 1.5;" x1="19" x2="168" y1="48" y2="48"/><ellipse cx="29" cy="59" fill="#84BE84" rx="3" ry="3" style="stroke: #038048; stroke-width: 1.0;"/><text fill="#000000" font-family="sans-serif" font-size="11" lengthAdjust="spacingAndGlyphs" textLength="119" x="38" y="62.2104">void stackOfStrings()</text><ellipse cx="29" cy="71.8047" fill="#84BE84" rx="3" ry="3" style="stroke: #038048; stroke-width: 1.0;"/><text fill="#000000" font-family="sans-serif" font-size="11" lengthAdjust="spacingAndGlyphs" textLength="125" x="38" y="75.0151">void stackOfIntegers()</text><!--reverse link GenericStackClient to MyGenericStack--><path d="M93.5,95.6613 C93.5,110.2249 93.5,126.3631 93.5,141.8406 " fill="none" id="GenericStackClient&lt;-MyGenericStack" style="stroke: #A80036; stroke-width: 1.0;"/><polygon fill="#A80036" points="93.5,82.2536,89.5,88.2536,93.5,94.2536,97.5,88.2536,93.5,82.2536" style="stroke: #A80036; stroke-width: 1.0;"/><!--
@startuml   LinkedListStack Diagram

    class MyGenericStack<T> {
        - LinkedList underLinkedList

        + MyGenericStack()

        + void push(T elem)
        + T pop()
        + int size()
        + boolean isEmpty()
    }

    class GenericStackClient {
        + void stackOfStrings()
        + void stackOfIntegers()
    }

    GenericStackClient *- - MyGenericStack

@enduml

PlantUML version 1.2019.09(Mon Aug 26 23:19:51 ICT 2019)
(GPL source distribution)
Java Runtime: OpenJDK Runtime Environment
JVM: OpenJDK 64-Bit Server VM
Java Version: 1.8.0_171-8u171-b11-2-b11
Operating System: Linux
OS Version: 4.19.0-kali1-amd64
Default Encoding: UTF-8
Language: en
Country: US
--></g></svg>