<?xml version="1.0" encoding="UTF-8" standalone="no"?><svg xmlns="http://www.w3.org/2000/svg" xmlns:xlink="http://www.w3.org/1999/xlink" contentScriptType="application/ecmascript" contentStyleType="text/css" height="328px" preserveAspectRatio="none" style="width:178px;height:328px;" version="1.1" viewBox="0 0 178 328" width="178px" zoomAndPan="magnify"><defs><filter height="300%" id="fs40e4vl1cdhb" width="300%" x="-1" y="-1"><feGaussianBlur result="blurOut" stdDeviation="2.0"/><feColorMatrix in="blurOut" result="blurOut2" type="matrix" values="0 0 0 0 0 0 0 0 0 0 0 0 0 0 0 0 0 0 .4 0"/><feOffset dx="4.0" dy="4.0" in="blurOut2" result="blurOut3"/><feBlend in="SourceGraphic" in2="blurOut3" mode="normal"/></filter></defs><g><!--class MyQueue--><rect fill="#FEFECE" filter="url(#fs40e4vl1cdhb)" height="188.8516" id="MyQueue" style="stroke: #A80036; stroke-width: 1.5;" width="151" x="11" y="129"/><ellipse cx="48.95" cy="145" fill="#ADD1B2" rx="11" ry="11" style="stroke: #A80036; stroke-width: 1.0;"/><path d="M51.9188,150.6406 Q51.3406,150.9375 50.7,151.0859 Q50.0594,151.2344 49.3563,151.2344 Q46.8563,151.2344 45.5359,149.5859 Q44.2156,147.9375 44.2156,144.8125 Q44.2156,141.6875 45.5359,140.0313 Q46.8563,138.375 49.3563,138.375 Q50.0594,138.375 50.7078,138.5313 Q51.3563,138.6875 51.9188,138.9844 L51.9188,141.7031 Q51.2938,141.125 50.7,140.8516 Q50.1063,140.5781 49.4813,140.5781 Q48.1375,140.5781 47.45,141.6484 Q46.7625,142.7188 46.7625,144.8125 Q46.7625,146.9063 47.45,147.9766 Q48.1375,149.0469 49.4813,149.0469 Q50.1063,149.0469 50.7,148.7734 Q51.2938,148.5 51.9188,147.9219 L51.9188,150.6406 Z "/><text fill="#000000" font-family="sans-serif" font-size="12" lengthAdjust="spacingAndGlyphs" textLength="57" x="68.05" y="149.1543">MyQueue</text><rect fill="#FFFFFF" height="15.9688" style="stroke: #000000; stroke-width: 1.0; stroke-dasharray: 2.0,2.0;" width="9" x="156" y="126"/><text fill="#000000" font-family="sans-serif" font-size="12" font-style="italic" lengthAdjust="spacingAndGlyphs" textLength="7" x="157" y="138.1387">T</text><line style="stroke: #A80036; stroke-width: 1.5;" x1="12" x2="161" y1="161" y2="161"/><rect fill="none" height="6" style="stroke: #C82930; stroke-width: 1.0;" width="6" x="19" y="169"/><text fill="#000000" font-family="sans-serif" font-size="11" lengthAdjust="spacingAndGlyphs" textLength="64" x="31" y="175.2104">int capacity</text><rect fill="none" height="6" style="stroke: #C82930; stroke-width: 1.0;" width="6" x="19" y="181.8047"/><text fill="#000000" font-family="sans-serif" font-size="11" lengthAdjust="spacingAndGlyphs" textLength="82" x="31" y="188.0151">T[] underArray</text><rect fill="none" height="6" style="stroke: #C82930; stroke-width: 1.0;" width="6" x="19" y="194.6094"/><text fill="#000000" font-family="sans-serif" font-size="11" lengthAdjust="spacingAndGlyphs" textLength="46" x="31" y="200.8198">int head</text><rect fill="none" height="6" style="stroke: #C82930; stroke-width: 1.0;" width="6" x="19" y="207.4141"/><text fill="#000000" font-family="sans-serif" font-size="11" lengthAdjust="spacingAndGlyphs" textLength="35" x="31" y="213.6245">int tail</text><rect fill="none" height="6" style="stroke: #C82930; stroke-width: 1.0;" width="6" x="19" y="220.2188"/><text fill="#000000" font-family="sans-serif" font-size="11" lengthAdjust="spacingAndGlyphs" textLength="82" x="31" y="226.4292">int currentSize</text><line style="stroke: #A80036; stroke-width: 1.5;" x1="12" x2="161" y1="233.0234" y2="233.0234"/><ellipse cx="22" cy="244.0234" fill="#84BE84" rx="3" ry="3" style="stroke: #038048; stroke-width: 1.0;"/><text fill="#000000" font-family="sans-serif" font-size="11" lengthAdjust="spacingAndGlyphs" textLength="124" x="31" y="247.2339">MyQueue(int capacity)</text><text fill="#000000" font-family="sans-serif" font-size="11" lengthAdjust="spacingAndGlyphs" textLength="0" x="35" y="260.0386"/><ellipse cx="22" cy="269.6328" fill="#84BE84" rx="3" ry="3" style="stroke: #038048; stroke-width: 1.0;"/><text fill="#000000" font-family="sans-serif" font-size="11" lengthAdjust="spacingAndGlyphs" textLength="123" x="31" y="272.8433">boolean isQueueFull()</text><ellipse cx="22" cy="282.4375" fill="#84BE84" rx="3" ry="3" style="stroke: #038048; stroke-width: 1.0;"/><text fill="#000000" font-family="sans-serif" font-size="11" lengthAdjust="spacingAndGlyphs" textLength="102" x="31" y="285.6479">boolean isEmpty()</text><ellipse cx="22" cy="295.2422" fill="#84BE84" rx="3" ry="3" style="stroke: #038048; stroke-width: 1.0;"/><text fill="#000000" font-family="sans-serif" font-size="11" lengthAdjust="spacingAndGlyphs" textLength="125" x="31" y="298.4526">void enQueue(T elem)</text><ellipse cx="22" cy="308.0469" fill="#84BE84" rx="3" ry="3" style="stroke: #038048; stroke-width: 1.0;"/><text fill="#000000" font-family="sans-serif" font-size="11" lengthAdjust="spacingAndGlyphs" textLength="70" x="31" y="311.2573">T deQueue()</text><!--class MyQueueClient--><rect fill="#FEFECE" filter="url(#fs40e4vl1cdhb)" height="60.8047" id="MyQueueClient" style="stroke: #A80036; stroke-width: 1.5;" width="161" x="6" y="8"/><ellipse cx="37.65" cy="24" fill="#ADD1B2" rx="11" ry="11" style="stroke: #A80036; stroke-width: 1.0;"/><path d="M40.6188,29.6406 Q40.0406,29.9375 39.4,30.0859 Q38.7594,30.2344 38.0563,30.2344 Q35.5563,30.2344 34.2359,28.5859 Q32.9156,26.9375 32.9156,23.8125 Q32.9156,20.6875 34.2359,19.0313 Q35.5563,17.375 38.0563,17.375 Q38.7594,17.375 39.4078,17.5313 Q40.0563,17.6875 40.6188,17.9844 L40.6188,20.7031 Q39.9938,20.125 39.4,19.8516 Q38.8063,19.5781 38.1813,19.5781 Q36.8375,19.5781 36.15,20.6484 Q35.4625,21.7188 35.4625,23.8125 Q35.4625,25.9063 36.15,26.9766 Q36.8375,28.0469 38.1813,28.0469 Q38.8063,28.0469 39.4,27.7734 Q39.9938,27.5 40.6188,26.9219 L40.6188,29.6406 Z "/><text fill="#000000" font-family="sans-serif" font-size="12" lengthAdjust="spacingAndGlyphs" textLength="92" x="55.35" y="28.1543">MyQueueClient</text><line style="stroke: #A80036; stroke-width: 1.5;" x1="7" x2="166" y1="40" y2="40"/><line style="stroke: #A80036; stroke-width: 1.5;" x1="7" x2="166" y1="48" y2="48"/><ellipse cx="17" cy="59" fill="#84BE84" rx="3" ry="3" style="stroke: #038048; stroke-width: 1.0;"/><text fill="#000000" font-family="sans-serif" font-size="11" lengthAdjust="spacingAndGlyphs" text-decoration="underline" textLength="135" x="26" y="62.2104">void main(String[] args)</text><!--reverse link MyQueueClient to MyQueue--><path d="M86.5,82.3699 C86.5,96.4676 86.5,112.6712 86.5,128.9592 " fill="none" id="MyQueueClient&lt;-MyQueue" style="stroke: #A80036; stroke-width: 1.0;"/><polygon fill="#A80036" points="86.5,69.049,82.5,75.049,86.5,81.049,90.5,75.049,86.5,69.049" style="stroke: #A80036; stroke-width: 1.0;"/><!--
@startuml   MyQueueDiagram

class MyQueue<T> {
    - int capacity
    - T[] underArray
    - int head
    - int tail
    - int currentSize

    + MyQueue(int capacity)

    + boolean isQueueFull()
    + boolean isEmpty()
    + void enQueue(T elem)
    + T deQueue()
}

class MyQueueClient {
    + {static} void main(String[] args)
}

MyQueueClient *- - MyQueue

@enduml

PlantUML version 1.2019.09(Mon Aug 26 23:19:51 ICT 2019)
(GPL source distribution)
Java Runtime: OpenJDK Runtime Environment
JVM: OpenJDK 64-Bit Server VM
Java Version: 1.8.0_171-8u171-b11-2-b11
Operating System: Linux
OS Version: 4.19.0-kali1-amd64
Default Encoding: UTF-8
Language: en
Country: US
--></g></svg>