<?xml version="1.0" encoding="UTF-8" standalone="no"?><svg xmlns="http://www.w3.org/2000/svg" xmlns:xlink="http://www.w3.org/1999/xlink" contentScriptType="application/ecmascript" contentStyleType="text/css" height="303px" preserveAspectRatio="none" style="width:178px;height:303px;" version="1.1" viewBox="0 0 178 303" width="178px" zoomAndPan="magnify"><defs><filter height="300%" id="f1llp0q1g0rgt5" width="300%" x="-1" y="-1"><feGaussianBlur result="blurOut" stdDeviation="2.0"/><feColorMatrix in="blurOut" result="blurOut2" type="matrix" values="0 0 0 0 0 0 0 0 0 0 0 0 0 0 0 0 0 0 .4 0"/><feOffset dx="4.0" dy="4.0" in="blurOut2" result="blurOut3"/><feBlend in="SourceGraphic" in2="blurOut3" mode="normal"/></filter></defs><g><!--class MyStack--><rect fill="#FEFECE" filter="url(#f1llp0q1g0rgt5)" height="163.2422" id="MyStack" style="stroke: #A80036; stroke-width: 1.5;" width="145" x="14" y="129"/><ellipse cx="51.95" cy="145" fill="#ADD1B2" rx="11" ry="11" style="stroke: #A80036; stroke-width: 1.0;"/><path d="M54.9188,150.6406 Q54.3406,150.9375 53.7,151.0859 Q53.0594,151.2344 52.3563,151.2344 Q49.8563,151.2344 48.5359,149.5859 Q47.2156,147.9375 47.2156,144.8125 Q47.2156,141.6875 48.5359,140.0313 Q49.8563,138.375 52.3563,138.375 Q53.0594,138.375 53.7078,138.5313 Q54.3563,138.6875 54.9188,138.9844 L54.9188,141.7031 Q54.2938,141.125 53.7,140.8516 Q53.1063,140.5781 52.4813,140.5781 Q51.1375,140.5781 50.45,141.6484 Q49.7625,142.7188 49.7625,144.8125 Q49.7625,146.9063 50.45,147.9766 Q51.1375,149.0469 52.4813,149.0469 Q53.1063,149.0469 53.7,148.7734 Q54.2938,148.5 54.9188,147.9219 L54.9188,150.6406 Z "/><text fill="#000000" font-family="sans-serif" font-size="12" lengthAdjust="spacingAndGlyphs" textLength="51" x="71.05" y="149.1543">MyStack</text><rect fill="#FFFFFF" height="15.9688" style="stroke: #000000; stroke-width: 1.0; stroke-dasharray: 2.0,2.0;" width="9" x="153" y="126"/><text fill="#000000" font-family="sans-serif" font-size="12" font-style="italic" lengthAdjust="spacingAndGlyphs" textLength="7" x="154" y="138.1387">T</text><line style="stroke: #A80036; stroke-width: 1.5;" x1="15" x2="158" y1="161" y2="161"/><rect fill="none" height="6" style="stroke: #C82930; stroke-width: 1.0;" width="6" x="22" y="169"/><text fill="#000000" font-family="sans-serif" font-size="11" lengthAdjust="spacingAndGlyphs" textLength="82" x="34" y="175.2104">T[] underArray</text><rect fill="none" height="6" style="stroke: #C82930; stroke-width: 1.0;" width="6" x="22" y="181.8047"/><text fill="#000000" font-family="sans-serif" font-size="11" lengthAdjust="spacingAndGlyphs" textLength="36" x="34" y="188.0151">int top</text><rect fill="none" height="6" style="stroke: #C82930; stroke-width: 1.0;" width="6" x="22" y="194.6094"/><text fill="#000000" font-family="sans-serif" font-size="11" lengthAdjust="spacingAndGlyphs" textLength="65" x="34" y="200.8198">int maxSize</text><line style="stroke: #A80036; stroke-width: 1.5;" x1="15" x2="158" y1="207.4141" y2="207.4141"/><ellipse cx="25" cy="218.4141" fill="#84BE84" rx="3" ry="3" style="stroke: #038048; stroke-width: 1.0;"/><text fill="#000000" font-family="sans-serif" font-size="11" lengthAdjust="spacingAndGlyphs" textLength="119" x="34" y="221.6245">MyStack(int maxSize)</text><ellipse cx="25" cy="231.2188" fill="#84BE84" rx="3" ry="3" style="stroke: #038048; stroke-width: 1.0;"/><text fill="#000000" font-family="sans-serif" font-size="11" lengthAdjust="spacingAndGlyphs" textLength="102" x="34" y="234.4292">void push(T elem)</text><ellipse cx="25" cy="244.0234" fill="#84BE84" rx="3" ry="3" style="stroke: #038048; stroke-width: 1.0;"/><text fill="#000000" font-family="sans-serif" font-size="11" lengthAdjust="spacingAndGlyphs" textLength="40" x="34" y="247.2339">T pop()</text><ellipse cx="25" cy="256.8281" fill="#84BE84" rx="3" ry="3" style="stroke: #038048; stroke-width: 1.0;"/><text fill="#000000" font-family="sans-serif" font-size="11" lengthAdjust="spacingAndGlyphs" textLength="48" x="34" y="260.0386">int size()</text><ellipse cx="25" cy="269.6328" fill="#84BE84" rx="3" ry="3" style="stroke: #038048; stroke-width: 1.0;"/><text fill="#000000" font-family="sans-serif" font-size="11" lengthAdjust="spacingAndGlyphs" textLength="102" x="34" y="272.8433">boolean isEmpty()</text><ellipse cx="25" cy="282.4375" fill="#84BE84" rx="3" ry="3" style="stroke: #038048; stroke-width: 1.0;"/><text fill="#000000" font-family="sans-serif" font-size="11" lengthAdjust="spacingAndGlyphs" textLength="86" x="34" y="285.6479">boolean isFull()</text><!--class StackClient--><rect fill="#FEFECE" filter="url(#f1llp0q1g0rgt5)" height="60.8047" id="StackClient" style="stroke: #A80036; stroke-width: 1.5;" width="161" x="6" y="8"/><ellipse cx="47.55" cy="24" fill="#ADD1B2" rx="11" ry="11" style="stroke: #A80036; stroke-width: 1.0;"/><path d="M50.5188,29.6406 Q49.9406,29.9375 49.3,30.0859 Q48.6594,30.2344 47.9563,30.2344 Q45.4563,30.2344 44.1359,28.5859 Q42.8156,26.9375 42.8156,23.8125 Q42.8156,20.6875 44.1359,19.0313 Q45.4563,17.375 47.9563,17.375 Q48.6594,17.375 49.3078,17.5313 Q49.9563,17.6875 50.5188,17.9844 L50.5188,20.7031 Q49.8938,20.125 49.3,19.8516 Q48.7063,19.5781 48.0813,19.5781 Q46.7375,19.5781 46.05,20.6484 Q45.3625,21.7188 45.3625,23.8125 Q45.3625,25.9063 46.05,26.9766 Q46.7375,28.0469 48.0813,28.0469 Q48.7063,28.0469 49.3,27.7734 Q49.8938,27.5 50.5188,26.9219 L50.5188,29.6406 Z "/><text fill="#000000" font-family="sans-serif" font-size="12" lengthAdjust="spacingAndGlyphs" textLength="70" x="67.45" y="28.1543">StackClient</text><line style="stroke: #A80036; stroke-width: 1.5;" x1="7" x2="166" y1="40" y2="40"/><line style="stroke: #A80036; stroke-width: 1.5;" x1="7" x2="166" y1="48" y2="48"/><ellipse cx="17" cy="59" fill="#84BE84" rx="3" ry="3" style="stroke: #038048; stroke-width: 1.0;"/><text fill="#000000" font-family="sans-serif" font-size="11" lengthAdjust="spacingAndGlyphs" text-decoration="underline" textLength="135" x="26" y="62.2104">void main(String[] args)</text><!--reverse link StackClient to MyStack--><path d="M86.5,82.6123 C86.5,96.7185 86.5,112.814 86.5,128.7167 " fill="none" id="StackClient&lt;-MyStack" style="stroke: #A80036; stroke-width: 1.0;"/><polygon fill="#A80036" points="86.5,69.2502,82.5,75.2502,86.5,81.2502,90.5,75.2502,86.5,69.2502" style="stroke: #A80036; stroke-width: 1.0;"/><!--
@startuml  StackArray Diagram

    class MyStack<T> {
        - T[] underArray
        - int top
        - int maxSize

        + MyStack(int maxSize)
        + void push(T elem)
        + T pop()
        + int size()
        + boolean isEmpty()
        + boolean isFull()
    }

    class StackClient {
        + {static} void main(String[] args)
    }

    StackClient *- - MyStack

@enduml

PlantUML version 1.2019.09(Mon Aug 26 23:19:51 ICT 2019)
(GPL source distribution)
Java Runtime: OpenJDK Runtime Environment
JVM: OpenJDK 64-Bit Server VM
Java Version: 1.8.0_171-8u171-b11-2-b11
Operating System: Linux
OS Version: 4.19.0-kali1-amd64
Default Encoding: UTF-8
Language: en
Country: US
--></g></svg>